<svg width="48" height="48" fill="none" xmlns="http://www.w3.org/2000/svg">
  <rect width="48" height="48" rx="8" fill="#D0BEC4"/>
  <path d="M24 14.169h4.916c1.156 0 1.735.289 2.168.433.579.29 1.012.434 1.446.868.434.434.723.867.868 1.446.144.433.289 1.012.433 2.168v9.832c0 1.156-.289 1.735-.433 2.168-.29.579-.434 1.012-.868 1.446-.434.434-.867.723-1.446.868-.433.144-1.012.289-2.168.433h-9.832c-1.156 0-1.735-.289-2.168-.433-.579-.29-1.012-.434-1.446-.868-.434-.434-.723-.867-.868-1.446-.144-.433-.289-1.012-.433-2.168v-9.832c0-1.156.289-1.735.433-2.168.29-.579.434-1.012.868-1.446.434-.434.867-.723 1.446-.868.433-.144 1.012-.289 2.168-.433H24ZM24 12h-4.916c-1.3 0-2.168.29-2.891.578a6.314 6.314 0 0 0-2.169 1.446c-.723.723-1.012 1.301-1.446 2.169-.289.723-.433 1.59-.578 2.891v9.832c0 1.3.29 2.168.578 2.891.29.723.723 1.446 1.446 2.169.723.723 1.301 1.012 2.169 1.446.723.289 1.59.433 2.891.578h9.832c1.3 0 2.168-.29 2.891-.578a6.314 6.314 0 0 0 2.169-1.446c.723-.723 1.012-1.301 1.446-2.169.289-.723.433-1.59.578-2.891v-9.832c0-1.3-.29-2.168-.578-2.891a6.314 6.314 0 0 0-1.446-2.169c-.723-.723-1.301-1.012-2.169-1.446-.723-.289-1.59-.433-2.891-.578H24Z" fill="#4B3542"/>
  <path d="M24 17.783A6.17 6.17 0 0 0 17.783 24 6.17 6.17 0 0 0 24 30.217 6.17 6.17 0 0 0 30.217 24 6.17 6.17 0 0 0 24 17.783Zm0 10.265c-2.169 0-4.048-1.735-4.048-4.048 0-2.169 1.735-4.048 4.048-4.048 2.169 0 4.048 1.735 4.048 4.048 0 2.169-1.88 4.048-4.048 4.048Zm6.361-8.964a1.446 1.446 0 1 0 0-2.891 1.446 1.446 0 0 0 0 2.891Z" fill="#4B3542"/>
</svg>
