<svg width="48" height="48" viewBox="0 0 48 48" fill="none" xmlns="http://www.w3.org/2000/svg">
<g clip-path="url(#clip0_1101_246)">
<rect width="48" height="48" rx="8" fill="white"/>
<path fill-rule="evenodd" clip-rule="evenodd" d="M48 0V48H0V0H48ZM25.186 46.516L25.164 46.52L25.022 46.59L24.982 46.598L24.954 46.59L24.812 46.52C24.792 46.512 24.774 46.518 24.764 46.53L24.756 46.55L24.722 47.406L24.732 47.446L24.752 47.472L24.96 47.62L24.99 47.628L25.014 47.62L25.222 47.472L25.246 47.44L25.254 47.406L25.22 46.552C25.216 46.532 25.202 46.518 25.186 46.516ZM25.716 46.29L25.69 46.294L25.32 46.48L25.3 46.5L25.294 46.522L25.33 47.382L25.34 47.406L25.356 47.42L25.758 47.606C25.782 47.614 25.804 47.606 25.816 47.59L25.824 47.562L25.756 46.334C25.75 46.31 25.736 46.294 25.716 46.29ZM24.286 46.294C24.2769 46.2899 24.2667 46.2888 24.257 46.291C24.2473 46.2931 24.2385 46.2984 24.232 46.306L24.22 46.334L24.152 47.562C24.152 47.586 24.166 47.602 24.186 47.61L24.216 47.606L24.618 47.42L24.638 47.404L24.646 47.382L24.68 46.522L24.674 46.498L24.654 46.478L24.286 46.294Z" fill="#4B3542"/>
<path d="M21.3333 15.5C20.4935 15.5 19.688 15.8336 19.0942 16.4275C18.5003 17.0214 18.1667 17.8268 18.1667 18.6667V34.6667C18.1667 35.5065 18.5003 36.312 19.0942 36.9058C19.688 37.4997 20.4935 37.8333 21.3333 37.8333C22.1732 37.8333 22.9786 37.4997 23.5725 36.9058C24.1664 36.312 24.5 35.5065 24.5 34.6667V25.1042C25.467 24.0902 26.627 23.2787 27.9125 22.7179C28.7176 22.3751 29.9276 22.2462 30.716 22.4954L30.7297 22.4998L30.7437 22.5033C30.9433 22.5539 31.1214 22.6669 31.2521 22.8257C31.3198 22.92 31.5 23.2302 31.5 24V34.6667C31.5 35.5065 31.8336 36.312 32.4275 36.9058C33.0214 37.4997 33.8268 37.8333 34.6667 37.8333C35.5065 37.8333 36.312 37.4997 36.9058 36.9058C37.4997 36.312 37.8333 35.5065 37.8333 34.6667V24C37.8333 22.1285 37.3577 20.4289 36.3378 19.0518L36.3357 19.0489C35.4036 17.8086 34.0993 16.8989 32.6134 16.4527C30.0704 15.6558 27.2832 16.0996 25.4216 16.8978C25.0265 17.0669 24.6384 17.2519 24.2582 17.4521C24.0635 16.9832 23.7574 16.5647 23.3624 16.2352C22.793 15.7601 22.0749 15.4999 21.3333 15.5ZM21.3333 15.5V16M21.3333 15.5C21.3333 15.5 21.3333 15.5 21.3333 15.5L21.3333 16M21.3333 16C20.6261 16 19.9478 16.281 19.4477 16.781C18.9476 17.2811 18.6667 17.9594 18.6667 18.6667V34.6667C18.6667 35.3739 18.9476 36.0522 19.4477 36.5523C19.9478 37.0524 20.6261 37.3333 21.3333 37.3333C22.0406 37.3333 22.7189 37.0524 23.219 36.5523C23.719 36.0522 24 35.3739 24 34.6667V24.9067L21.3333 16ZM40 0.5C41.9891 0.5 43.8968 1.29018 45.3033 2.6967C46.7098 4.10322 47.5 6.01088 47.5 8V40C47.5 41.9891 46.7098 43.8968 45.3033 45.3033C43.8968 46.7098 41.9891 47.5 40 47.5H8C6.01088 47.5 4.10322 46.7098 2.6967 45.3033C1.29018 43.8968 0.5 41.9891 0.5 40V8C0.5 6.01088 1.29018 4.10322 2.6967 2.6967C4.10322 1.29018 6.01088 0.5 8 0.5H40ZM13.3333 18.1667C12.4935 18.1667 11.688 18.5003 11.0942 19.0942C10.5003 19.688 10.1667 20.4935 10.1667 21.3333V34.6667C10.1667 35.5065 10.5003 36.312 11.0942 36.9058C11.688 37.4997 12.4935 37.8333 13.3333 37.8333C14.1732 37.8333 14.9786 37.4997 15.5725 36.9058C16.1664 36.312 16.5 35.5065 16.5 34.6667V21.3333C16.5 20.4935 16.1664 19.688 15.5725 19.0942C14.9786 18.5003 14.1732 18.1667 13.3333 18.1667ZM13.3333 10.1667C12.4935 10.1667 11.688 10.5003 11.0942 11.0942C10.5003 11.688 10.1667 12.4935 10.1667 13.3333C10.1667 14.1732 10.5003 14.9786 11.0942 15.5725C11.688 16.1664 12.4935 16.5 13.3333 16.5C14.1732 16.5 14.9786 16.1664 15.5725 15.5725C16.1664 14.9786 16.5 14.1732 16.5 13.3333C16.5 12.4935 16.1664 11.688 15.5725 11.0942C14.9786 10.5003 14.1732 10.1667 13.3333 10.1667Z" fill="#D0BEC4" stroke="#D0BEC4"/>
</g>
<defs>
<clipPath id="clip0_1101_246">
<rect width="48" height="48" rx="8" fill="white"/>
</clipPath>
</defs>
</svg>
