<svg width="130" height="130" fill="none" xmlns="http://www.w3.org/2000/svg">
  <path d="M64.318 118.385c.44.158.924.158 1.365 0a98.875 98.875 0 0 0 44.427-33.721 62.399 62.399 0 0 0 12.722-35.945c.381-16.936-7.728-29.65-22.247-34.879C89.494 9.841 74.525 10.385 65 20.113c-9.524-9.728-24.493-10.27-35.59-6.273C14.892 19.07 6.782 31.783 7.163 48.719c.79 29.734 24.387 56.637 57.155 69.666ZM30.732 17.509c10.478-3.791 24.715-3.079 32.897 6.854a1.937 1.937 0 0 0 2.745 0c8.183-9.933 22.415-10.643 32.89-6.853 12.842 4.625 20.01 15.97 19.671 31.123C118.19 76.66 95.732 101.937 65 114.46c-30.706-12.5-53.198-37.816-53.94-65.828-.337-15.154 6.83-26.498 19.672-31.123Z" fill="#4B3542"/>
  <path d="M38.423 82.178c-.285-6.645-1.19-18.468 1.3-23.704A46.773 46.773 0 0 1 52.45 42.77a57.308 57.308 0 0 1 11.172-7.26c1.028 2.923 2.271 9.698-3.957 17.613a1.951 1.951 0 0 0 3.064 2.413 27.15 27.15 0 0 0 4.505-8.11 47.393 47.393 0 0 1 8.035.14c6.664.91 9.063 9.472 10.691 13.6 1.157 3.425 4.598 5.09 9.468 4.575 2.375 7.611.62 16.892-8.132 17.627-13.368.808-18.434 12.374-18.642 12.87a1.95 1.95 0 0 0 3.588 1.522c.043-.098 4.305-9.835 15.29-10.5a13.27 13.27 0 0 0 12.031-9.74 25.499 25.499 0 0 0-.22-12.544 4.039 4.039 0 0 0-4.329-3.12c-3.173.3-5.1-.161-5.869-3.314-1.513-4.203-5.058-14.047-13.502-14.863a53.865 53.865 0 0 0-7.466-.223 18.78 18.78 0 0 0-1.853-11.44 1.95 1.95 0 0 0-2.21-.89c-.206.058-5.137 1.484-14.094 8.59A50.644 50.644 0 0 0 36.231 56.72c-2.965 6.04-2.063 17.855-1.71 25.636a1.953 1.953 0 1 0 3.902-.178Z" fill="#4B3542"/>
</svg>
