<svg width="130" height="130" fill="none" xmlns="http://www.w3.org/2000/svg">
  <path d="m124.757 77.374-18.513-8.544c-.063-.03-.127-.056-.192-.085l.328-1.163.016-.058.702-2.809a6.308 6.308 0 0 0-11.615-4.63 6.31 6.31 0 0 0-10.574-.643c-.034-.046-.067-.094-.104-.14a6.31 6.31 0 0 0-10.617 1.06l-2.526 5.052c-2.372.337-4.71.878-6.988 1.617H53.472a14.198 14.198 0 0 0-11.686 6.117 13.172 13.172 0 0 0-10.23 5.856l-.746 1.119a2.025 2.025 0 0 0-.33.954 20.583 20.583 0 0 0-4.34 2.66l-4.988 3.989L4.988 98.233a2.03 2.03 0 0 0-.508 2.935l18.281 23.97a2.028 2.028 0 0 0 2.146.729 2.05 2.05 0 0 0 .713-.355l15.936-12.35 12.71-3.559c.188.055.383.084.578.084h24.375c.401 0 .793-.118 1.127-.341l12.188-8.125c.29-.194.525-.458.683-.769l3.096-6.089 26.495 17.033a2.036 2.036 0 0 0 2.846-.672c.186-.314.284-.672.284-1.037V79.218a2.032 2.032 0 0 0-1.18-1.844Zm-23.781-16.437a2.246 2.246 0 0 1 2.181 2.793l-.695 2.779-.206.73a42.067 42.067 0 0 0-5.126-1.388l1.836-3.671a2.234 2.234 0 0 1 2.01-1.243ZM87.978 62.18a2.248 2.248 0 0 1 4.19 1.55L91.85 65h-5.284l1.412-2.82ZM76.411 65l1.41-2.82a2.248 2.248 0 0 1 4.19 1.55L81.694 65H76.41h.001ZM36.793 79.218a9.107 9.107 0 0 1 2.892-1.574l-.525 1.574h-2.367Zm3.284 30.139c-.253.071-.49.19-.697.35l-14.632 11.339-15.711-20.601 14.413-9.368a2.24 2.24 0 0 0 .162-.117l5.065-4.052a16.615 16.615 0 0 1 10.342-3.627 16.448 16.448 0 0 1 11.707 4.85l4.712 4.712a2.035 2.035 0 0 0 1.62.586l17.643-1.604a5.898 5.898 0 0 1 5.446 2.604 2.455 2.455 0 0 1-1.338 3.714l-18.437 5.531-20.295 5.683Zm38.526-3.732H68.006l11.97-3.592a6.52 6.52 0 0 0 3.982-3.378 6.514 6.514 0 0 0 .22-5.218h8.048l-2.389 4.699-11.234 7.489Zm43.272.342-25.308-16.27a2.03 2.03 0 0 0-1.099-.322H81.25c-.156 0-.312.019-.464.055a9.95 9.95 0 0 0-6.452-1.65l-16.696 1.517-4.039-4.04a20.715 20.715 0 0 0-4.56-3.445 3.922 3.922 0 0 1 3.55-2.431L63 79.218a2.03 2.03 0 1 0-.063-4.062l-10.41.162a8.008 8.008 0 0 0-7.212 4.879 20.445 20.445 0 0 0-2.02-.534l.543-1.624a10.144 10.144 0 0 1 9.635-6.946H65c.218 0 .435-.035.642-.104a37.49 37.49 0 0 1 11.875-1.927h11.289a37.81 37.81 0 0 1 15.736 3.456l17.333 8v25.449Z" fill="#4B3542"/>
  <mask id="a" fill="#fff">
    <path fill-rule="evenodd" clip-rule="evenodd" d="M58.827 60.42C49.73 57.524 33.61 50.064 28.723 30.409 26.589 14.985 36.68 5.586 50.296 5.586c4.013 0 7.801 1.133 11.15 3.144 3.347-2.01 7.136-3.144 11.148-3.144 13.617 0 23.708 9.399 21.574 24.822C89.28 50.063 73.16 57.523 64.064 60.421c-.744.284-1.54.562-2.388.835l-.23-.063-.231.063a47.645 47.645 0 0 1-2.388-.835Z"/>
  </mask>
  <path d="m58.827 60.42 1.426-3.736-.105-.04-.107-.035-1.214 3.812ZM28.723 30.409l-3.962.549.029.21.051.207 3.882-.966ZM61.445 8.73l-2.06 3.43 2.06 1.237 2.06-1.238-2.06-3.429Zm32.723 21.678 3.881.966.052-.207.029-.21-3.962-.549ZM64.064 60.421l-1.214-3.812-.107.035-.105.04 1.426 3.737Zm-2.388.835-1.04 3.862 1.141.307 1.124-.362-1.225-3.807Zm-.23-.063 1.052-3.859-1.053-.287-1.052.287 1.052 3.86Zm-.231.063-1.226 3.807 1.125.362 1.14-.307-1.04-3.862Zm-1.174-4.647c-8.663-2.76-23.06-9.567-27.436-27.166l-7.764 1.93c5.398 21.71 23.242 29.823 32.771 32.859l2.429-7.623ZM32.685 29.86c-.928-6.706.827-11.658 3.854-14.93 3.07-3.319 7.856-5.344 13.757-5.344v-8c-7.715 0-14.783 2.674-19.629 7.91-4.889 5.284-7.112 12.743-5.906 21.46l7.924-1.096ZM50.296 9.586c3.24 0 6.323.912 9.09 2.573l4.119-6.858c-3.93-2.36-8.424-3.715-13.209-3.715v8Zm22.298-8c-4.784 0-9.279 1.355-13.208 3.715l4.119 6.858c2.767-1.662 5.849-2.573 9.09-2.573v-8Zm25.536 29.37c1.206-8.716-1.018-16.176-5.907-21.46-4.845-5.236-11.913-7.91-19.629-7.91v8c5.901 0 10.687 2.025 13.757 5.344 3.028 3.272 4.782 8.224 3.855 14.93l7.924 1.097ZM65.278 64.233c9.53-3.036 27.374-11.148 32.771-32.858l-7.763-1.93C85.91 47.041 71.512 53.848 62.85 56.608l2.428 7.623Zm-2.64-7.548c-.67.255-1.398.51-2.188.764l2.451 7.615c.908-.292 1.77-.593 2.59-.905l-2.853-7.474Zm.077.71-.217-.06-2.105 7.718.243.066 2.08-7.725Zm-.46 7.724.243-.066-2.105-7.718-.218.06 2.08 7.724Zm-4.855-.96a51.54 51.54 0 0 0 2.59.905l2.45-7.615a43.689 43.689 0 0 1-2.187-.764L57.4 64.158Z" fill="#4B3542" mask="url(#a)"/>
  <path d="M67.947 37.031c1.696 2.15 2.679 4.945 2.703 7.547-.25.945-.536 1.283-.711 1.418-.175.134-.483.257-1.234.236-.625-.017-1.345-.122-2.286-.259l-.747-.107c-1.272-.18-2.786-.363-4.53-.376-1.746-.012-3.276.155-4.568.325-.31.041-.597.08-.868.118-.907.124-1.615.222-2.236.24-.786.023-1.097-.101-1.257-.223-.146-.111-.414-.412-.625-1.335.057-2.623 1.053-5.456 2.75-7.623 1.721-2.198 4.066-3.603 6.783-3.583 2.736.02 5.103 1.437 6.826 3.622Zm-8.955-11.344c0 1.337-.402 2.488-.978 3.27-.576.781-1.25 1.112-1.858 1.112-.608 0-1.282-.33-1.859-1.113-.575-.78-.977-1.932-.977-3.269 0-1.337.401-2.488.977-3.27.577-.781 1.25-1.112 1.859-1.112.608 0 1.282.33 1.858 1.113.576.78.978 1.932.978 3.269Zm-9.674 10.022.442 1.434-.442-1.434c-.87.269-2.362-.353-2.948-2.214-.585-1.859.284-3.193 1.143-3.458.87-.269 2.36.353 2.947 2.214.585 1.859-.284 3.193-1.142 3.458Zm19.438-9.958c0 1.337-.402 2.488-.978 3.269-.576.782-1.25 1.113-1.858 1.113-.608 0-1.283-.331-1.859-1.113-.576-.781-.977-1.932-.977-3.27 0-1.337.401-2.488.977-3.269.576-.782 1.25-1.113 1.859-1.113.608 0 1.282.331 1.858 1.113.576.781.978 1.932.978 3.27Zm7.146 7.973c-.743 1.808-2.284 2.304-3.127 1.964-.83-.334-1.584-1.734-.843-3.54.743-1.807 2.284-2.303 3.127-1.963.83.334 1.585 1.734.843 3.54Z" stroke="#4B3542" stroke-width="3"/>
</svg>
