<svg width="130" height="130" fill="none" xmlns="http://www.w3.org/2000/svg"><path d="m124.757 77.374-18.513-8.544c-.063-.03-.127-.056-.192-.085l.328-1.163.016-.058.702-2.809a6.308 6.308 0 0 0-11.615-4.63 6.31 6.31 0 0 0-10.574-.643c-.034-.046-.067-.094-.104-.14a6.31 6.31 0 0 0-10.617 1.06l-2.526 5.052c-2.372.337-4.71.878-6.988 1.617H53.472a14.198 14.198 0 0 0-11.686 6.117 13.172 13.172 0 0 0-10.23 5.856l-.746 1.119a2.025 2.025 0 0 0-.33.954 20.583 20.583 0 0 0-4.34 2.66l-4.988 3.989L4.988 98.233a2.03 2.03 0 0 0-.508 2.935l18.281 23.97a2.028 2.028 0 0 0 2.146.729 2.05 2.05 0 0 0 .713-.355l15.936-12.35 12.71-3.559c.188.055.383.084.578.084h24.375c.401 0 .793-.118 1.127-.341l12.188-8.125c.29-.194.525-.458.683-.769l3.096-6.089 26.495 17.033a2.036 2.036 0 0 0 2.846-.672c.186-.314.284-.672.284-1.037V79.218a2.032 2.032 0 0 0-1.18-1.844Zm-23.781-16.437a2.246 2.246 0 0 1 2.181 2.793l-.695 2.779-.206.73a42.067 42.067 0 0 0-5.126-1.388l1.836-3.671a2.234 2.234 0 0 1 2.01-1.243ZM87.978 62.18a2.248 2.248 0 0 1 4.19 1.55L91.85 65h-5.284l1.412-2.82ZM76.411 65l1.41-2.82a2.248 2.248 0 0 1 4.19 1.55L81.694 65H76.41h.001ZM36.793 79.218a9.107 9.107 0 0 1 2.892-1.574l-.525 1.574h-2.367Zm3.284 30.139c-.253.071-.49.19-.697.35l-14.632 11.339-15.711-20.601 14.413-9.368a2.24 2.24 0 0 0 .162-.117l5.065-4.052a16.615 16.615 0 0 1 10.342-3.627 16.448 16.448 0 0 1 11.707 4.85l4.712 4.712a2.035 2.035 0 0 0 1.62.586l17.643-1.604a5.898 5.898 0 0 1 5.446 2.604 2.455 2.455 0 0 1-1.338 3.714l-18.437 5.531-20.295 5.683Zm38.526-3.732H68.006l11.97-3.592a6.52 6.52 0 0 0 3.982-3.378 6.514 6.514 0 0 0 .22-5.218h8.048l-2.389 4.699-11.234 7.489Zm43.272.342-25.308-16.27a2.03 2.03 0 0 0-1.099-.322H81.25c-.156 0-.312.019-.464.055a9.95 9.95 0 0 0-6.452-1.65l-16.696 1.517-4.039-4.04a20.715 20.715 0 0 0-4.56-3.445 3.922 3.922 0 0 1 3.55-2.431L63 79.218a2.03 2.03 0 1 0-.063-4.062l-10.41.162a8.008 8.008 0 0 0-7.212 4.879 20.445 20.445 0 0 0-2.02-.534l.543-1.624a10.144 10.144 0 0 1 9.635-6.946H65c.218 0 .435-.035.642-.104a37.49 37.49 0 0 1 11.875-1.927h11.289a37.81 37.81 0 0 1 15.736 3.456l17.333 8v25.449ZM66.15 47.222h-.217c-.85-.05-1.698-.147-2.538-.289l-.763-.103a32.848 32.848 0 0 0-4.468-.382c-1.505.01-3.008.12-4.498.33l-.877.114c-.824.132-1.654.221-2.487.268a3.477 3.477 0 0 1-2.27-.547 3.725 3.725 0 0 1-1.217-2.27l-.052-.185v-.176a15.022 15.022 0 0 1 3.168-8.79 10.37 10.37 0 0 1 8.16-4.292h.063a10.617 10.617 0 0 1 8.254 4.333 14.63 14.63 0 0 1 3.095 8.729v.412a4.014 4.014 0 0 1-1.29 2.291c-.6.425-1.331.622-2.063.557Zm-8.182-3.869h.196c1.634.03 3.264.164 4.88.402l.784.114c.721.122 1.448.209 2.177.258h.279c.052-.118.097-.238.134-.361a11.72 11.72 0 0 0-2.455-6.634 7.585 7.585 0 0 0-5.84-3.096 7.367 7.367 0 0 0-5.716 3.096 12.195 12.195 0 0 0-2.507 6.747l.072.227h.268c.557 0 1.249-.113 2.136-.237l.908-.124a34.947 34.947 0 0 1 4.705-.392h-.02Zm12.794-6.913a2.982 2.982 0 0 1-1.145-.216 3.416 3.416 0 0 1-1.837-1.878 4.87 4.87 0 0 1 .103-3.776c1.084-2.642 3.56-3.54 5.231-2.869a3.415 3.415 0 0 1 1.816 1.837 4.963 4.963 0 0 1-.093 3.797 4.591 4.591 0 0 1-4.086 3.105h.01Zm1.145-5.87s-.743.134-1.186 1.197c-.444 1.062-.104 1.547 0 1.65.103.103.742-.134 1.176-1.197.464-1 .175-1.578.01-1.65Zm-26.361 5.85a4.52 4.52 0 0 1-4.127-3.426 4.963 4.963 0 0 1 .227-3.786 3.477 3.477 0 0 1 2.012-1.733c1.723-.537 4.127.577 4.973 3.29a4.983 4.983 0 0 1-.227 3.798 3.446 3.446 0 0 1-1.97 1.723 3.096 3.096 0 0 1-.888.134Zm-1-5.995a1.67 1.67 0 0 0-.125 1.62c.32 1.032.919 1.238 1.104 1.259.186.02.475-.63.165-1.61-.31-.98-1-1.248-1.145-1.248v-.02Zm18.57.165a3.953 3.953 0 0 1-3.167-1.785 7.666 7.666 0 0 1 0-8.573 3.705 3.705 0 0 1 6.335 0 7.666 7.666 0 0 1 0 8.573 3.95 3.95 0 0 1-3.178 1.765l.01.02Zm0-9.048c-.134 0-.392.134-.67.526a4.57 4.57 0 0 0 0 4.9c.279.393.536.527.67.527.135 0 .372-.113.671-.526a4.57 4.57 0 0 0 0-4.9c-.31-.393-.578-.506-.68-.506l.01-.021Zm-10.08 9.028a3.962 3.962 0 0 1-3.167-1.775 7.687 7.687 0 0 1 0-8.584 3.704 3.704 0 0 1 6.325 0 7.686 7.686 0 0 1 0 8.584 3.961 3.961 0 0 1-3.158 1.775Zm0-9.038c-.113 0-.371.113-.67.515a4.592 4.592 0 0 0 0 4.912c.299.412.557.515.67.515.114 0 .361-.103.671-.515a4.653 4.653 0 0 0 0-4.912c-.31-.433-.567-.546-.67-.546v.03Z" fill="#4B3542"/><path d="m58.19 61.295-.553-.141a48.253 48.253 0 0 1-17.659-8.515 48.318 48.318 0 0 1-14.787-18.894l-.065-.151a21.948 21.948 0 0 1 9.143-26.108 22.274 22.274 0 0 1 23.563.823c8.049-5.146 18.102-5.33 25.49-.358 10.346 6.5 10.119 19.132 8.548 24.917v.087a40.192 40.192 0 0 1-16.25 20.247 54.037 54.037 0 0 1-16.803 7.963l-.628.13Zm-29.002-29.25A44.006 44.006 0 0 0 42.622 49.16a44.137 44.137 0 0 0 15.513 7.584 49.833 49.833 0 0 0 14.96-7.215l.12-.076A36.345 36.345 0 0 0 87.699 31.59c.271-1.084 3.315-13.759-6.749-20.085-6.338-4.269-15.102-3.803-21.873 1.083l-1.31.953-1.279-.986a17.983 17.983 0 0 0-19.998-1.451 17.615 17.615 0 0 0-7.302 21.038v-.097Z" fill="#4B3542"/></svg>
