<svg width="130" height="130" fill="none" xmlns="http://www.w3.org/2000/svg">
  <g clip-path="url(#a)" stroke="#4B3542" stroke-width="4">
    <path d="M70.462 18.538s-3.109-2.867-7.9-1.424c-4.399 1.325-5.491 7.345-2.502 9.69 1.717 1.346 4.3 2.453 7.78 3.683 4.048 1.43 5.215 5.083 4.292 8.27M64.826 13v25.758" stroke-miterlimit="10" stroke-linecap="round" stroke-linejoin="round"/>
    <path d="M92.579 38.757a28.738 28.738 0 0 0 1.162-8.112c0-15.873-12.867-28.74-28.74-28.74-15.874 0-28.742 12.867-28.742 28.74 0 2.817.408 5.539 1.163 8.112H92.58Zm-80.51 43.389v32.145c0 7.624 6.18 13.805 13.805 13.805h78.253c7.624 0 13.805-6.181 13.805-13.805v-11.944m0 0-.001-43.207H12.069v23.006m105.862-43.389H12.069a6.492 6.492 0 0 0-6.492 6.492v7.4a6.492 6.492 0 0 0 6.492 6.491h105.862a6.492 6.492 0 0 0 6.492-6.492v-7.4a6.492 6.492 0 0 0-6.492-6.491Z" stroke-miterlimit="10" stroke-linecap="round" stroke-linejoin="round"/>
    <path d="M61.5 76.658c0 2.84-.842 5.332-2.106 7.064-1.265 1.734-2.844 2.593-4.398 2.593-1.554 0-3.134-.859-4.399-2.593-1.264-1.732-2.107-4.223-2.107-7.064s.843-5.332 2.107-7.065C51.862 67.86 53.442 67 54.996 67c1.553 0 3.133.86 4.398 2.593 1.264 1.733 2.107 4.224 2.107 7.065Zm19.153.126c0 2.84-.843 5.332-2.107 7.064-1.265 1.734-2.844 2.593-4.398 2.593-1.554 0-3.133-.859-4.398-2.593-1.264-1.732-2.107-4.223-2.107-7.064s.843-5.332 2.106-7.065c1.266-1.734 2.845-2.593 4.399-2.593 1.554 0 3.133.86 4.398 2.593 1.264 1.733 2.107 4.224 2.107 7.065Zm13.944 16.178c-1.588 3.906-5.07 5.347-7.347 4.42-2.277-.925-3.765-4.39-2.177-8.295 1.588-3.905 5.07-5.346 7.347-4.42 2.276.926 3.765 4.39 2.177 8.296ZM44.72 89.369c1.254 4.025-.52 7.352-2.866 8.084-2.346.731-5.695-.997-6.95-5.022s.52-7.352 2.865-8.084c2.346-.731 5.696.997 6.95 5.022Zm20.05 27.509c-3.363-.024-6.315.301-8.834.636-.586.078-1.138.155-1.661.227-1.794.25-3.248.452-4.52.49-1.615.048-2.486-.197-3.055-.633-.547-.421-1.167-1.293-1.61-3.327.09-5.45 2.123-11.324 5.604-15.816 3.513-4.532 8.366-7.507 14.047-7.466 5.707.041 10.6 3.033 14.118 7.541 3.482 4.462 5.494 10.27 5.511 15.692-.526 2.073-1.182 3.004-1.773 3.462-.592.46-1.454.707-3.011.664-1.286-.037-2.765-.254-4.62-.527-.454-.066-.931-.137-1.433-.208-2.481-.354-5.403-.71-8.763-.735Z"/>
  </g>
  <defs>
    <clipPath id="a">
      <path fill="#fff" d="M0 0h130v130H0z"/>
    </clipPath>
  </defs>
</svg>
