<svg width="197" height="82" viewBox="0 0 197 82" fill="none" xmlns="http://www.w3.org/2000/svg">
<g clip-path="url(#clip0_689_5563)">
<path d="M2.57345 2.5625C4.28984 0.853416 6.86328 0 10.2938 0C13.7243 0 16.2978 0.853416 18.0141 2.5625C19.7305 4.27158 22.304 8.54092 25.7345 15.375C29.165 22.2091 31.7565 26.4784 33.5068 28.1875C35.2572 29.8966 37.8125 30.75 41.1752 30.75C44.6057 30.75 47.1791 29.8966 48.8955 28.1875C50.6119 26.4784 53.1854 22.2091 56.6159 15.375C60.0464 8.54092 62.6198 4.27158 64.3362 2.5625C66.0526 0.853416 68.6261 0 72.0566 0C75.4871 0 78.0605 0.853416 79.7769 2.5625C81.4933 4.27158 82.3504 6.83408 82.3504 10.25V71.75C82.3504 75.1659 81.4933 77.7284 79.7769 79.4375C78.0605 81.1466 75.4871 82 72.0566 82C68.6261 82 66.0526 81.1466 64.3362 79.4375C62.6198 77.7284 61.7628 75.1659 61.7628 71.75V56.375C61.7628 52.9591 60.0464 51.25 56.6159 51.25C53.1854 51.25 51.469 52.9591 51.469 56.375V71.75C51.469 75.1659 50.6119 77.7284 48.8955 79.4375C47.1791 81.1466 44.6057 82 41.1752 82C37.7447 82 35.1712 81.1466 33.4548 79.4375C31.7384 77.7284 30.8814 75.1659 30.8814 71.75V56.375C30.8814 52.9591 29.165 51.25 25.7345 51.25C22.304 51.25 20.5876 52.9591 20.5876 56.375V71.75C20.5876 75.1659 19.7305 77.7284 18.0141 79.4375C16.2978 81.1466 13.7243 82 10.2938 82C6.86328 82 4.28984 81.1466 2.57345 79.4375C0.857062 77.7284 0 75.1659 0 71.75V10.25C0 6.83408 0.857062 4.27158 2.57345 2.5625Z" fill="#3D4756"/>
<path d="M87.0903 17.3475V11.61C87.0903 9.69829 87.5652 8.26393 88.515 7.30693C89.4648 6.34993 90.8917 5.87256 92.7913 5.87256C94.6908 5.87256 96.1178 6.34993 97.0675 7.30693C98.0173 8.26393 98.4922 9.69604 98.4922 11.61V23.0827C98.4922 24.9945 98.9671 26.4289 99.9169 27.3858C100.867 28.3428 102.294 28.8202 104.193 28.8202C106.093 28.8202 107.52 28.3428 108.469 27.3858C109.419 26.4289 109.894 24.9967 109.894 23.0827V11.61C109.894 9.69829 110.369 8.26393 111.319 7.30693C112.269 6.34993 113.695 5.87256 115.595 5.87256C117.495 5.87256 118.922 6.34993 119.871 7.30693C120.821 8.26393 121.296 9.69604 121.296 11.61V34.5554C121.296 36.4672 120.821 37.9016 119.871 38.8586C118.922 39.8156 117.495 40.2929 115.595 40.2929H104.191C98.4899 40.2929 94.2137 38.3812 91.3621 34.5577C88.5105 30.7342 87.0903 24.9967 87.0903 17.3475Z" fill="#3D4756"/>
<path d="M159.936 17.3475C159.936 19.2593 159.461 20.6936 158.511 21.6506C157.562 22.6076 156.135 23.085 154.235 23.085C152.336 23.085 150.909 22.6076 149.959 21.6506C149.009 20.6936 148.059 19.7389 147.107 18.7819C146.155 17.8249 144.731 17.3475 142.831 17.3475C140.932 17.3475 139.505 17.8249 138.555 18.7819C137.605 19.7389 137.13 21.171 137.13 23.085V34.5577C137.13 36.4694 136.655 37.9038 135.705 38.8608C134.756 39.8178 133.329 40.2952 131.429 40.2952C129.53 40.2952 128.103 39.8178 127.153 38.8608C126.203 37.9038 125.728 36.4717 125.728 34.5577V11.61C125.728 9.69829 126.203 8.26393 127.153 7.30693C128.103 6.34993 129.53 5.87256 131.429 5.87256H142.833C148.534 5.87256 152.811 7.30693 155.662 10.1757C158.511 13.0444 159.936 15.4358 159.936 17.3475Z" fill="#3D4756"/>
<path d="M196.998 17.3475C196.998 19.2593 196.523 20.6936 195.573 21.6506C194.623 22.6076 193.197 23.085 191.297 23.085C189.397 23.085 187.97 22.6076 187.021 21.6506C186.071 20.6936 185.121 19.7389 184.169 18.7819C183.219 17.8249 181.792 17.3475 179.893 17.3475C177.993 17.3475 176.566 17.8249 175.617 18.7819C174.667 19.7389 174.192 21.171 174.192 23.085V34.5577C174.192 36.4694 173.717 37.9038 172.767 38.8608C171.817 39.8178 170.391 40.2952 168.491 40.2952C166.591 40.2952 165.164 39.8178 164.215 38.8608C163.265 37.9038 162.79 36.4717 162.79 34.5577V11.61C162.79 9.69829 163.265 8.26393 164.215 7.30693C165.164 6.34993 166.591 5.87256 168.491 5.87256H179.895C185.596 5.87256 189.872 7.30693 192.724 10.1757C195.576 13.0444 196.998 15.4358 196.998 17.3475Z" fill="#3D4756"/>
<path d="M90.0347 49.1581C91.9975 47.2036 94.9418 46.2263 98.8676 46.2263C100.177 46.2263 101.158 46.5528 101.812 47.2036C102.465 47.8543 102.793 48.8316 102.793 50.1354C102.793 51.4391 102.465 52.4164 101.812 53.0672C101.158 53.7179 100.177 54.0444 98.8676 54.0444C97.5583 54.0444 96.5768 54.3709 95.9233 55.0217C95.2697 55.6724 94.9418 56.6497 94.9418 57.9535V59.908C94.9418 61.2118 95.5954 61.8625 96.9047 61.8625H98.8676C100.177 61.8625 101.158 62.189 101.812 62.8398C102.465 63.4905 102.793 64.4678 102.793 65.7716C102.793 67.0753 102.465 68.0526 101.812 68.7034C101.158 69.3541 100.177 69.6806 98.8676 69.6806H96.9047C95.5954 69.6806 94.9418 70.3314 94.9418 71.6352V73.5897C94.9418 74.8934 94.6139 75.8707 93.9604 76.5215C93.3069 77.1722 92.3254 77.4987 91.0161 77.4987C89.7068 77.4987 88.7253 77.1722 88.0718 76.5215C87.4182 75.8707 87.0903 74.8934 87.0903 73.5897V56.0012C87.0903 53.3937 88.0718 51.1126 90.0347 49.1581Z" fill="#3D4756"/>
<path d="M122.418 69.6783H124.38C125.69 69.6783 126.671 70.0048 127.325 70.6556C127.978 71.3063 128.306 72.2836 128.306 73.5874C128.306 74.8911 127.978 75.8684 127.325 76.5192C126.671 77.1699 125.69 77.4964 124.38 77.4964H116.529C112.603 77.4964 109.659 76.1926 107.696 73.5874C105.733 70.9821 104.752 68.3768 104.752 65.7693C104.752 63.164 105.733 60.5587 107.696 57.9512C109.659 55.3459 112.603 54.0421 116.529 54.0421C120.455 54.0421 123.399 55.0194 125.362 56.9739C127.325 58.9284 128.306 61.2072 128.306 63.8147C128.306 66.4223 126.343 68.3768 122.418 69.6783ZM116.549 61.8625C113.946 61.876 112.635 63.1775 112.615 65.7715C112.594 68.3633 113.897 68.3588 116.52 65.7513C119.143 63.146 119.154 61.849 116.549 61.8625Z" fill="#3D4756"/>
<path d="M149.896 65.7716C148.586 65.7716 147.605 65.4451 146.951 64.7943C146.298 64.1436 145.642 63.4906 144.988 62.8398C144.335 62.189 143.353 61.8625 142.044 61.8625C140.735 61.8625 139.753 62.189 139.1 62.8398C138.446 63.4906 138.118 64.4678 138.118 65.7716C138.118 67.0754 138.446 68.0526 139.1 68.7034C139.753 69.3541 140.735 69.6806 142.044 69.6806H149.896C151.205 69.6806 152.186 70.0071 152.84 70.6579C153.493 71.3087 153.821 72.2859 153.821 73.5897C153.821 74.8935 153.493 75.8707 152.84 76.5215C152.186 77.1722 151.205 77.4987 149.896 77.4987H142.044C138.118 77.4987 135.174 76.5215 133.211 74.5669C131.248 72.6124 130.267 69.6806 130.267 65.7716C130.267 61.8625 131.248 58.9307 133.211 56.9762C135.174 55.0217 138.118 54.0444 142.044 54.0444C145.97 54.0444 148.914 55.0217 150.877 56.9762C152.84 58.9307 153.821 60.5588 153.821 61.8625C153.821 63.1663 153.493 64.1436 152.84 64.7943C152.186 65.4451 151.205 65.7716 149.896 65.7716Z" fill="#3D4756"/>
<path d="M155.784 67.7239V50.1354C155.784 48.8316 156.112 47.8543 156.766 47.2036C157.419 46.5528 158.401 46.2263 159.71 46.2263C161.019 46.2263 162.001 46.5528 162.654 47.2036C163.308 47.8543 163.636 48.8316 163.636 50.1354V52.0899C163.636 53.3937 164.289 54.0444 165.599 54.0444H167.561C168.871 54.0444 169.852 54.3709 170.506 55.0217C171.159 55.6724 171.487 56.6497 171.487 57.9535C171.487 59.2572 171.159 60.2345 170.506 60.8853C169.852 61.536 168.871 61.8625 167.561 61.8625H165.599C164.289 61.8625 163.636 62.5133 163.636 63.817V65.7716C163.636 67.0753 163.964 68.0526 164.617 68.7034C165.271 69.3541 166.252 69.6806 167.561 69.6806C168.871 69.6806 169.852 70.0071 170.506 70.6579C171.159 71.3086 171.487 72.2859 171.487 73.5897C171.487 74.8934 171.159 75.8707 170.506 76.5215C169.852 77.1722 168.871 77.4987 167.561 77.4987C163.636 77.4987 160.691 76.5215 158.728 74.5669C156.766 72.6124 155.784 70.3314 155.784 67.7239Z" fill="#3D4756"/>
<path d="M197 65.7716C197 69.6806 196.019 72.6124 194.056 74.5669C192.093 76.5215 189.149 77.4987 185.223 77.4987C181.297 77.4987 178.353 76.5215 176.39 74.5669C174.427 72.6124 173.446 69.6806 173.446 65.7716C173.446 61.8625 174.427 58.9307 176.39 56.9762C178.353 55.0217 181.297 54.0444 185.223 54.0444C189.149 54.0444 192.093 55.0217 194.056 56.9762C196.019 58.9307 197 61.8625 197 65.7716ZM185.243 61.8625C182.64 61.876 181.329 63.1776 181.308 65.7716C181.288 68.3634 182.591 69.6671 185.214 69.6806C187.837 69.6942 189.149 68.3904 189.149 65.7716C189.149 63.1528 187.846 61.849 185.243 61.8625Z" fill="#3D4756"/>
<path d="M43.7261 75.9C43.907 75.7379 44.0879 75.5735 44.2666 75.4091C44.4498 75.2425 44.6374 75.0804 44.8138 74.907C44.8591 74.8642 44.902 74.8192 44.9473 74.7764C44.9812 74.7426 45.0174 74.7111 45.049 74.6773C45.0942 74.6255 45.1417 74.576 45.187 74.5242C45.2164 74.4927 45.248 74.4611 45.2752 74.4274C45.3566 74.326 45.4425 74.2247 45.5216 74.1211C45.7342 73.8374 45.9242 73.5289 46.0531 73.1979C46.0825 73.1236 46.1073 73.0493 46.13 72.9727C46.1616 72.8647 46.1933 72.7566 46.2159 72.6485C46.2543 72.4616 46.2543 72.2634 46.2498 72.072C46.2475 71.9955 46.2408 71.9189 46.234 71.8423C46.2227 71.7343 46.1978 71.6307 46.1684 71.5271C46.1187 71.3515 46.0395 71.1893 45.949 71.0317C45.8586 70.8764 45.7433 70.739 45.6121 70.6174C45.4809 70.4958 45.3272 70.4035 45.1711 70.3179C45.0083 70.2278 44.8364 70.1715 44.6601 70.122C44.59 70.1017 44.5176 70.0882 44.4452 70.0792C44.3548 70.0657 44.2643 70.0612 44.1739 70.059C43.9862 70.0567 43.803 70.0657 43.6198 70.1017C43.448 70.1355 43.2738 70.1851 43.1155 70.2616C43.0273 70.3022 42.9459 70.3517 42.8623 70.4012C42.7899 70.444 42.7198 70.4913 42.652 70.5408C42.5208 70.6354 42.3964 70.7412 42.2788 70.8538C42.0663 71.0542 41.8763 71.2749 41.709 71.5136C41.6366 71.6172 41.571 71.7253 41.5077 71.8333C41.4987 71.8063 41.4896 71.7793 41.4806 71.75C41.4466 71.6622 41.4037 71.5834 41.3562 71.5023C41.3155 71.4303 41.268 71.3627 41.2228 71.2929C41.1662 71.2074 41.1097 71.1195 41.0509 71.0362C41.0057 70.9709 40.9604 70.9056 40.913 70.8426C40.8089 70.7052 40.6913 70.5769 40.5602 70.462C40.4403 70.3584 40.316 70.2616 40.1803 70.1783C40.0242 70.0815 39.8637 69.9892 39.6895 69.9284C39.5923 69.8946 39.4928 69.8676 39.3933 69.8428C39.3142 69.8225 39.2328 69.8068 39.1513 69.7955H39.1491C38.9636 69.7707 38.7714 69.7685 38.586 69.773C38.4232 69.7775 38.2558 69.7955 38.0975 69.836C37.9166 69.8833 37.7402 69.9419 37.5684 70.0139C37.3965 70.086 37.2314 70.176 37.0777 70.2796C36.9239 70.381 36.7882 70.4981 36.6593 70.6287C36.5281 70.7615 36.4264 70.9146 36.3314 71.0723C36.2523 71.2051 36.1867 71.347 36.1392 71.4933C36.0804 71.6757 36.0374 71.8649 36.0261 72.0563C36.0171 72.2432 36.0306 72.4278 36.0713 72.6102C36.146 72.948 36.2771 73.2677 36.4445 73.5672C36.5349 73.7316 36.6344 73.8869 36.7452 74.0378C36.7882 74.0964 36.8334 74.1549 36.8809 74.2112C36.9239 74.2652 36.9669 74.3193 37.0098 74.3733C37.0415 74.4116 37.0754 74.4476 37.1071 74.4837C37.1636 74.5467 37.2179 74.612 37.2789 74.6706C37.3241 74.7133 37.3694 74.7584 37.4146 74.8012C37.4508 74.8349 37.4847 74.8732 37.5231 74.907C37.5706 74.9475 37.6181 74.9903 37.6656 75.0308C37.8307 75.175 38.0003 75.3101 38.1722 75.4474C38.5385 75.7401 38.9026 76.0396 39.2689 76.3346C39.6149 76.6116 39.9632 76.8863 40.2956 77.179C40.4697 77.3321 40.6393 77.492 40.8089 77.6496C40.8971 77.7307 40.9831 77.8118 41.069 77.8928C41.1414 77.9604 41.2115 78.0279 41.2838 78.091C41.3449 78.1428 41.4037 78.1946 41.467 78.2418C41.5235 78.2869 41.5823 78.3274 41.6389 78.3724C41.7587 78.467 41.9306 78.467 42.0527 78.377C42.1002 78.3409 42.1364 78.2959 42.159 78.2418C42.1658 78.2148 42.1748 78.1878 42.1816 78.163C42.2268 78.118 42.2517 78.064 42.263 78.0009C42.2788 77.9243 42.2901 77.8478 42.306 77.7735C42.3376 77.6744 42.3715 77.5798 42.4145 77.4853C42.4575 77.3929 42.505 77.3051 42.557 77.2173C42.6678 77.0507 42.7854 76.8885 42.9098 76.7287C42.9753 76.6454 43.0432 76.5688 43.111 76.4877C43.1698 76.4179 43.2377 76.3549 43.2987 76.2873C43.4412 76.1635 43.5814 76.0306 43.7261 75.9Z" fill="white"/>
</g>
<defs>
<clipPath id="clip0_689_5563">
<rect width="197" height="82" fill="white"/>
</clipPath>
</defs>
</svg>
